<svg width="14" height="14" viewBox="0 0 14 14" fill="none" xmlns="http://www.w3.org/2000/svg">
<path d="M3.50065 12.8335C3.17982 12.8335 2.90526 12.7194 2.67698 12.4911C2.44871 12.2628 2.33437 11.9881 2.33398 11.6668V5.8335C2.33398 5.51266 2.44832 5.23811 2.67698 5.00983C2.90565 4.78155 3.18021 4.66722 3.50065 4.66683H4.08398V3.50016C4.08398 2.69322 4.36846 2.00547 4.9374 1.43691C5.50635 0.868358 6.1941 0.583885 7.00065 0.583496C7.80721 0.583108 8.49515 0.86758 9.06448 1.43691C9.63382 2.00625 9.9181 2.694 9.91732 3.50016V4.66683H10.5007C10.8215 4.66683 11.0962 4.78116 11.3249 5.00983C11.5536 5.2385 11.6677 5.51305 11.6673 5.8335V11.6668C11.6673 11.9877 11.5532 12.2624 11.3249 12.4911C11.0966 12.7197 10.8219 12.8339 10.5007 12.8335H3.50065ZM7.00065 9.91683C7.32148 9.91683 7.59623 9.80269 7.8249 9.57441C8.05357 9.34614 8.16771 9.07139 8.16732 8.75016C8.16693 8.42894 8.05279 8.15439 7.8249 7.9265C7.59701 7.69861 7.32226 7.58427 7.00065 7.5835C6.67904 7.58272 6.40448 7.69705 6.17698 7.9265C5.94948 8.15594 5.83515 8.4305 5.83398 8.75016C5.83282 9.06983 5.94715 9.34458 6.17698 9.57441C6.40682 9.80425 6.68137 9.91838 7.00065 9.91683ZM5.25065 4.66683H8.75065V3.50016C8.75065 3.01405 8.58051 2.60086 8.24023 2.26058C7.89996 1.9203 7.48676 1.75016 7.00065 1.75016C6.51454 1.75016 6.10135 1.9203 5.76107 2.26058C5.42079 2.60086 5.25065 3.01405 5.25065 3.50016V4.66683Z" fill="#6B7280"/>
</svg>
