<svg width="22" height="22" viewBox="0 0 22 22" fill="none" xmlns="http://www.w3.org/2000/svg">
<path d="M7.46283 3.1088C7.60022 2.83565 7.81079 2.60605 8.07107 2.44561C8.33134 2.28517 8.63108 2.2002 8.93683 2.2002H13.0772C13.3838 2.20021 13.6843 2.28564 13.9451 2.4469C14.2058 2.60817 14.4165 2.83889 14.5534 3.1132L15.1969 4.4002H17.0559C17.7853 4.4002 18.4847 4.68993 19.0005 5.20565C19.5162 5.72138 19.8059 6.42085 19.8059 7.1502V11.2873C19.1802 10.7682 18.456 10.381 17.6768 10.1491C16.8976 9.9171 16.0795 9.84517 15.2717 9.9376C15.0099 8.89723 14.3773 7.98826 13.4925 7.38147C12.6078 6.77469 11.532 6.51185 10.4672 6.64233C9.40233 6.77282 8.42179 7.28765 7.70978 8.09011C6.99776 8.89256 6.60327 9.9274 6.60043 11.0002C6.60009 11.9825 6.92848 12.9367 7.5333 13.7108C8.13812 14.4849 8.98457 15.0343 9.93783 15.2715C9.8046 16.4507 10.0211 17.6431 10.5604 18.7002H4.95703C4.22769 18.7002 3.52821 18.4105 3.01249 17.8947C2.49676 17.379 2.20703 16.6795 2.20703 15.9502V7.1502C2.20703 6.42085 2.49676 5.72138 3.01249 5.20565C3.52821 4.68993 4.22769 4.4002 4.95703 4.4002H6.81603L7.46283 3.1088ZM11.0004 7.7002C12.5327 7.7002 13.8208 8.7452 14.1926 10.1598C13.2412 10.4495 12.3757 10.9689 11.6724 11.6722C10.9691 12.3754 10.4497 13.241 10.16 14.1924C9.38543 13.9873 8.71188 13.5074 8.265 12.8423C7.81813 12.1771 7.62843 11.3722 7.7313 10.5775C7.83417 9.78283 8.22258 9.05271 8.82408 8.52329C9.42559 7.99388 10.1991 7.70133 11.0004 7.7002ZM20.9004 15.9502C20.9004 17.263 20.3789 18.5221 19.4506 19.4504C18.5223 20.3787 17.2633 20.9002 15.9504 20.9002C14.6376 20.9002 13.3786 20.3787 12.4503 19.4504C11.5219 18.5221 11.0004 17.263 11.0004 15.9502C11.0004 14.6374 11.5219 13.3783 12.4503 12.45C13.3786 11.5217 14.6376 11.0002 15.9504 11.0002C17.2633 11.0002 18.5223 11.5217 19.4506 12.45C20.3789 13.3783 20.9004 14.6374 20.9004 15.9502ZM16.5004 13.7502C16.5004 13.6043 16.4425 13.4644 16.3393 13.3613C16.2362 13.2581 16.0963 13.2002 15.9504 13.2002C15.8046 13.2002 15.6647 13.2581 15.5615 13.3613C15.4584 13.4644 15.4004 13.6043 15.4004 13.7502V15.4002H13.7504C13.6046 15.4002 13.4647 15.4581 13.3615 15.5613C13.2584 15.6644 13.2004 15.8043 13.2004 15.9502C13.2004 16.0961 13.2584 16.236 13.3615 16.3391C13.4647 16.4422 13.6046 16.5002 13.7504 16.5002H15.4004V18.1502C15.4004 18.2961 15.4584 18.436 15.5615 18.5391C15.6647 18.6422 15.8046 18.7002 15.9504 18.7002C16.0963 18.7002 16.2362 18.6422 16.3393 18.5391C16.4425 18.436 16.5004 18.2961 16.5004 18.1502V16.5002H18.1504C18.2963 16.5002 18.4362 16.4422 18.5393 16.3391C18.6425 16.236 18.7004 16.0961 18.7004 15.9502C18.7004 15.8043 18.6425 15.6644 18.5393 15.5613C18.4362 15.4581 18.2963 15.4002 18.1504 15.4002H16.5004V13.7502Z" fill="#9CA3AF"/>
</svg>
