<svg width="20" height="20" viewBox="0 0 20 20" fill="none" xmlns="http://www.w3.org/2000/svg">
<path d="M10.0007 3.3335C10.8847 3.3335 11.7326 3.68469 12.3577 4.30981C12.9828 4.93493 13.334 5.78277 13.334 6.66683C13.334 7.55088 12.9828 8.39873 12.3577 9.02385C11.7326 9.64897 10.8847 10.0002 10.0007 10.0002C9.1166 10.0002 8.26875 9.64897 7.64363 9.02385C7.01851 8.39873 6.66732 7.55088 6.66732 6.66683C6.66732 5.78277 7.01851 4.93493 7.64363 4.30981C8.26875 3.68469 9.1166 3.3335 10.0007 3.3335ZM10.0007 11.6668C13.684 11.6668 16.6673 13.1585 16.6673 15.0002V16.6668H3.33398V15.0002C3.33398 13.1585 6.31732 11.6668 10.0007 11.6668Z" fill="#9CA3AF"/>
</svg>
