<svg width="22" height="22" viewBox="0 0 22 22" fill="none" xmlns="http://www.w3.org/2000/svg">
<path d="M11 21.0835L8.25 18.3335H4.58333C4.07917 18.3335 3.64772 18.1541 3.289 17.7954C2.93028 17.4367 2.75061 17.0049 2.75 16.5002V3.66683C2.75 3.16266 2.92967 2.73122 3.289 2.3725C3.64833 2.01377 4.07978 1.83411 4.58333 1.8335H17.4167C17.9208 1.8335 18.3526 2.01316 18.7119 2.3725C19.0713 2.73183 19.2506 3.16327 19.25 3.66683V16.5002C19.25 17.0043 19.0706 17.4361 18.7119 17.7954C18.3532 18.1547 17.9214 18.3341 17.4167 18.3335H13.75L11 21.0835ZM11 11.0002C11.8861 11.0002 12.6424 10.687 13.2688 10.0606C13.8951 9.43419 14.2083 8.67794 14.2083 7.79183C14.2083 6.90572 13.8951 6.14947 13.2688 5.52308C12.6424 4.89669 11.8861 4.5835 11 4.5835C10.1139 4.5835 9.35764 4.89669 8.73125 5.52308C8.10486 6.14947 7.79167 6.90572 7.79167 7.79183C7.79167 8.67794 8.10486 9.43419 8.73125 10.0606C9.35764 10.687 10.1139 11.0002 11 11.0002ZM4.58333 16.5002H17.4167V15.446C16.5917 14.6363 15.6331 13.9986 14.5411 13.5329C13.449 13.0672 12.2687 12.8341 11 12.8335C9.73133 12.8329 8.55097 13.066 7.45892 13.5329C6.36686 13.9998 5.40833 14.6375 4.58333 15.446V16.5002Z" fill="#256956"/>
</svg>
