<svg width="22" height="22" viewBox="0 0 22 22" fill="none" xmlns="http://www.w3.org/2000/svg">
<path d="M10.0829 18.3335C9.57874 18.3335 9.1473 18.1542 8.78858 17.7954C8.42986 17.4367 8.25019 17.005 8.24958 16.5002V14.6669C8.24958 14.1627 8.42924 13.7313 8.78858 13.3725C9.14791 13.0138 9.57936 12.8341 10.0829 12.8335H11.9162C12.4204 12.8335 12.8522 13.0132 13.2115 13.3725C13.5708 13.7319 13.7502 14.1633 13.7496 14.6669V16.5002C13.7496 17.0044 13.5702 17.4361 13.2115 17.7954C12.8528 18.1548 12.421 18.3341 11.9162 18.3335H10.0829ZM2.74958 11.3669C2.53569 11.5196 2.30652 11.5808 2.06208 11.5502C1.81763 11.5196 1.61902 11.3974 1.46624 11.1835C1.31347 10.9696 1.25633 10.7405 1.29483 10.496C1.33333 10.2516 1.45158 10.053 1.64958 9.9002L9.87666 3.59811C10.0447 3.47589 10.2244 3.38422 10.4157 3.32311C10.6069 3.262 10.8016 3.23145 10.9996 3.23145C11.1976 3.23145 11.3925 3.262 11.5844 3.32311C11.7763 3.38422 11.9557 3.47589 12.1225 3.59811L14.6662 5.54603V5.04186C14.6662 4.65992 14.8001 4.33542 15.0677 4.06836C15.3354 3.80131 15.6599 3.66747 16.0412 3.66686C16.4226 3.66625 16.7474 3.80008 17.0157 4.06836C17.2839 4.33664 17.4175 4.66114 17.4162 5.04186V7.65436L20.3725 9.9002C20.5711 10.053 20.6857 10.2516 20.7162 10.496C20.7468 10.7405 20.6857 10.9696 20.5329 11.1835C20.3801 11.3974 20.1815 11.5196 19.9371 11.5502C19.6926 11.5808 19.4635 11.5196 19.2496 11.3669L10.9996 5.06478L2.74958 11.3669Z" fill="#256956"/>
</svg>
